<?xml version="1.0" encoding="UTF-8" standalone="no"?>
<!-- Created with Inkscape (http://www.inkscape.org/) -->

<svg
   width="512"
   height="512"
   viewBox="0 0 135.46665 135.46665"
   version="1.1"
   id="svg1"
   xml:space="preserve"
   inkscape:export-filename="favicon.png"
   inkscape:export-xdpi="256"
   inkscape:export-ydpi="256"
   inkscape:version="1.3 (0e150ed, 2023-07-21)"
   sodipodi:docname="favicon.svg"
   xmlns:inkscape="http://www.inkscape.org/namespaces/inkscape"
   xmlns:sodipodi="http://sodipodi.sourceforge.net/DTD/sodipodi-0.dtd"
   xmlns="http://www.w3.org/2000/svg"
   xmlns:svg="http://www.w3.org/2000/svg"><sodipodi:namedview
     id="namedview1"
     pagecolor="#ffffff"
     bordercolor="#000000"
     borderopacity="0.25"
     inkscape:showpageshadow="false"
     inkscape:pageopacity="0.0"
     inkscape:pagecheckerboard="0"
     inkscape:deskcolor="#d1d1d1"
     inkscape:document-units="mm"
     inkscape:zoom="0.81037989"
     inkscape:cx="132.03684"
     inkscape:cy="277.64756"
     inkscape:window-width="1224"
     inkscape:window-height="785"
     inkscape:window-x="217"
     inkscape:window-y="25"
     inkscape:window-maximized="0"
     inkscape:current-layer="layer1" /><defs
     id="defs1" /><g
     inkscape:label="Layer 1"
     inkscape:groupmode="layer"
     id="layer1"><rect
       style="fill:#4d4d4d;stroke-width:0.264583"
       id="rect1"
       width="135.46666"
       height="135.46666"
       x="0"
       y="0"
       ry="24.486973" /><g
       id="g4"
       transform="translate(1.3229167)"><g
         style="fill:#eeeeee"
         id="g3"
         transform="matrix(3.9907986,0,0,3.9907986,19.84375,19.84375)"><path
           d="M 0,0 H 24 V 24 H 0 Z"
           fill="none"
           id="path1" /><path
           d="m 2.53,19.65 1.34,0.56 v -9.03 l -2.43,5.86 c -0.41,1.02 0.08,2.19 1.09,2.61 z M 22.03,15.95 17.07,3.98 C 16.76,3.23 16.03,2.77 15.26,2.75 15,2.75 14.73,2.79 14.47,2.9 L 7.1,5.95 C 6.35,6.26 5.89,6.98 5.87,7.75 5.86,8.02 5.91,8.29 6.02,8.55 l 4.96,11.97 c 0.31,0.76 1.05,1.22 1.83,1.23 0.26,0 0.52,-0.05 0.77,-0.15 l 7.36,-3.05 c 1.02,-0.42 1.51,-1.59 1.09,-2.6 z M 7.88,8.75 c -0.55,0 -1,-0.45 -1,-1 0,-0.55 0.45,-1 1,-1 0.55,0 1,0.45 1,1 0,0.55 -0.45,1 -1,1 z m -2,11 c 0,1.1 0.9,2 2,2 H 9.33 L 5.88,13.41 Z"
           id="path2" /></g><path
         style="fill:none;stroke:#eeeeee;stroke-width:2.64583;stroke-linecap:round;stroke-dasharray:none;stroke-opacity:1"
         id="path3"
         sodipodi:type="arc"
         sodipodi:cx="39.790558"
         sodipodi:cy="50.382931"
         sodipodi:rx="11.125093"
         sodipodi:ry="16.401695"
         sodipodi:start="2.29097"
         sodipodi:end="6.2104274"
         sodipodi:open="true"
         sodipodi:arc-type="arc"
         d="M 32.453389,62.711941 A 11.125093,16.401695 0 0 1 29.801544,43.16229 11.125093,16.401695 0 0 1 41.90859,34.281225 11.125093,16.401695 0 0 1 50.886218,49.19063" /></g></g></svg>
