<?xml version="1.0" encoding="UTF-8" standalone="no"?>
<svg
   height="26.370001"
   viewBox="0 0 13.185 13.185"
   width="26.370001"
   fill="#5f6368"
   version="1.1"
   id="svg2"
   sodipodi:docname="close.svg"
   inkscape:version="1.3 (0e150ed, 2023-07-21)"
   xmlns:inkscape="http://www.inkscape.org/namespaces/inkscape"
   xmlns:sodipodi="http://sodipodi.sourceforge.net/DTD/sodipodi-0.dtd"
   xmlns="http://www.w3.org/2000/svg"
   xmlns:svg="http://www.w3.org/2000/svg">
  <defs
     id="defs2" />
  <sodipodi:namedview
     id="namedview2"
     pagecolor="#ffffff"
     bordercolor="#000000"
     borderopacity="0.25"
     inkscape:showpageshadow="2"
     inkscape:pageopacity="0.0"
     inkscape:pagecheckerboard="0"
     inkscape:deskcolor="#d1d1d1"
     inkscape:zoom="4.9166667"
     inkscape:cx="13.220339"
     inkscape:cy="13.220339"
     inkscape:window-width="1224"
     inkscape:window-height="429"
     inkscape:window-x="217"
     inkscape:window-y="25"
     inkscape:window-maximized="0"
     inkscape:current-layer="svg2" />
  <path
     d="m -5.4075,-5.4075 h 24 v 24 h -24 z"
     fill="none"
     id="path1" />
  <path
     d="m 12.8925,0.3025 c -0.39,-0.39 -1.02,-0.39 -1.41,0 l -4.89,4.88 -4.89,-4.89 c -0.39,-0.39 -1.02,-0.39 -1.41,0 -0.39,0.39 -0.39,1.02 0,1.41 l 4.89,4.89 -4.89,4.89 c -0.39,0.39 -0.39,1.02 0,1.41 0.39,0.39 1.02,0.39 1.41,0 l 4.89,-4.89 4.89,4.89 c 0.39,0.39 1.02,0.39 1.41,0 0.39,-0.39 0.39,-1.02 0,-1.41 l -4.89,-4.89 4.89,-4.89 c 0.38,-0.38 0.38,-1.02 0,-1.4 z"
     id="path2" />
</svg>
