<?xml version="1.0" encoding="UTF-8" standalone="no"?>
<!-- Created with Inkscape (http://www.inkscape.org/) -->

<svg
   width="500.00101"
   height="500.0007"
   viewBox="0 0 132.29193 132.29185"
   version="1.1"
   id="svg1"
   inkscape:export-filename="circle.svg"
   inkscape:export-xdpi="96"
   inkscape:export-ydpi="96"
   sodipodi:docname="cross.svg"
   inkscape:version="1.3 (0e150ed, 2023-07-21)"
   xmlns:inkscape="http://www.inkscape.org/namespaces/inkscape"
   xmlns:sodipodi="http://sodipodi.sourceforge.net/DTD/sodipodi-0.dtd"
   xmlns="http://www.w3.org/2000/svg"
   xmlns:svg="http://www.w3.org/2000/svg">
  <sodipodi:namedview
     id="namedview1"
     pagecolor="#ffffff"
     bordercolor="#000000"
     borderopacity="0.25"
     inkscape:showpageshadow="2"
     inkscape:pageopacity="0.0"
     inkscape:pagecheckerboard="0"
     inkscape:deskcolor="#d1d1d1"
     inkscape:document-units="px"
     inkscape:zoom="0.58869752"
     inkscape:cx="166.46919"
     inkscape:cy="305.75974"
     inkscape:window-width="1224"
     inkscape:window-height="783"
     inkscape:window-x="217"
     inkscape:window-y="25"
     inkscape:window-maximized="0"
     inkscape:current-layer="layer1" />
  <defs
     id="defs1" />
  <g
     inkscape:label="Layer 1"
     inkscape:groupmode="layer"
     id="layer1"
     style="display:inline">
    <path
       id="rect1"
       style="display:inline;fill:#f62222;fill-opacity:0.80000001;stroke-width:42.9592;stroke-linecap:round;stroke-opacity:0.8"
       transform="rotate(45)"
       d="m 23.915017,-19.230953 50.398853,4.9e-4 -5.68e-4,-50.398887 c 0,0 -0.27269,-4.411262 3.294818,-7.97877 3.567508,-3.567508 7.978584,-3.294632 7.978584,-3.294632 h 15.915256 c 0,0 4.40822,-0.275777 7.97877,3.294819 3.57055,3.570595 3.29463,7.978583 3.29463,7.978583 l -0.002,50.400587 50.40054,-0.0022 c 6.24542,-2.7e-4 11.27332,5.027899 11.27332,11.2733171 V 7.9576359 c 0,6.2454181 -5.0279,11.2733171 -11.27332,11.2733171 h -50.40321 l 0.005,50.398397 c 0,0 0.27713,4.406498 -3.29477,7.978396 -3.5719,3.571898 -7.97863,3.295006 -7.97863,3.295006 H 85.586784 c 0,0 -4.44302,0.241012 -7.978664,-3.294632 -3.535643,-3.535643 -3.294818,-7.97877 -3.294818,-7.97877 l -0.0064,-50.398397 H 23.914996 c -6.245397,0 -11.273271,-5.027899 -11.273296,-11.2733171 l -6.3e-5,-15.9152092 c -2.5e-5,-6.2454177 5.027962,-11.2733797 11.27338,-11.2733797 z"
       inkscape:label="rect1"
       sodipodi:nodetypes="scczcczccsssscczcczccssss" />
  </g>
</svg>
