<?xml version="1.0" encoding="UTF-8" standalone="no"?>
<svg
   height="28"
   viewBox="0 0 20 14"
   width="40"
   fill="#5f6368"
   version="1.1"
   id="svg2"
   sodipodi:docname="keyboard.svg"
   inkscape:version="1.3 (0e150ed, 2023-07-21)"
   xmlns:inkscape="http://www.inkscape.org/namespaces/inkscape"
   xmlns:sodipodi="http://sodipodi.sourceforge.net/DTD/sodipodi-0.dtd"
   xmlns="http://www.w3.org/2000/svg"
   xmlns:svg="http://www.w3.org/2000/svg">
  <defs
     id="defs2" />
  <sodipodi:namedview
     id="namedview2"
     pagecolor="#ffffff"
     bordercolor="#000000"
     borderopacity="0.25"
     inkscape:showpageshadow="2"
     inkscape:pageopacity="0.0"
     inkscape:pagecheckerboard="0"
     inkscape:deskcolor="#d1d1d1"
     inkscape:zoom="4.9166667"
     inkscape:cx="19.932203"
     inkscape:cy="13.932203"
     inkscape:window-width="1440"
     inkscape:window-height="900"
     inkscape:window-x="0"
     inkscape:window-y="0"
     inkscape:window-maximized="0"
     inkscape:current-layer="svg2" />
  <path
     d="M 18,0 H 2 C 0.9,0 0.01,0.9 0.01,2 L 0,12 c 0,1.1 0.9,2 2,2 h 16 c 1.1,0 2,-0.9 2,-2 V 2 C 20,0.9 19.1,0 18,0 Z M 9,3 h 2 V 5 H 9 Z m 0,3 h 2 V 8 H 9 Z M 6,3 H 8 V 5 H 6 Z M 6,6 H 8 V 8 H 6 Z M 5,8 H 3 V 6 H 5 Z M 5,5 H 3 V 3 h 2 z m 9,7 H 6 v -2 h 8 z M 14,8 H 12 V 6 h 2 z M 14,5 H 12 V 3 h 2 z m 3,3 H 15 V 6 h 2 z M 17,5 H 15 V 3 h 2 z"
     id="path1" />
  <path
     d="M -2,-5 H 22 V 19 H -2 Z m 0,0 H 22 V 19 H -2 Z"
     fill="none"
     id="path2" />
</svg>
