<?xml version="1.0" encoding="UTF-8" standalone="no"?>
<svg
   height="35.150002"
   viewBox="0 0 15.590929 17.575001"
   width="31.181858"
   fill="#5f6368"
   version="1.1"
   id="svg2"
   sodipodi:docname="sort.svg"
   inkscape:version="1.3 (0e150ed, 2023-07-21)"
   xmlns:inkscape="http://www.inkscape.org/namespaces/inkscape"
   xmlns:sodipodi="http://sodipodi.sourceforge.net/DTD/sodipodi-0.dtd"
   xmlns="http://www.w3.org/2000/svg"
   xmlns:svg="http://www.w3.org/2000/svg">
  <defs
     id="defs2" />
  <sodipodi:namedview
     id="namedview2"
     pagecolor="#ffffff"
     bordercolor="#000000"
     borderopacity="0.25"
     inkscape:showpageshadow="2"
     inkscape:pageopacity="0.0"
     inkscape:pagecheckerboard="0"
     inkscape:deskcolor="#d1d1d1"
     inkscape:zoom="2.6849675"
     inkscape:cx="-68.715915"
     inkscape:cy="27.560855"
     inkscape:window-width="1440"
     inkscape:window-height="783"
     inkscape:window-x="0"
     inkscape:window-y="25"
     inkscape:window-maximized="1"
     inkscape:current-layer="svg2" />
  <path
     d="M -4.7084656,-3.2075 H 19.291534 v 24 H -4.7084656 Z"
     fill="none"
     id="path1" />
  <path
     d="m 13.291534,13.8025 v -6.01 c 0,-0.55 -0.45,-1 -1,-1 -0.55,0 -1,0.45 -1,1 v 6.01 H 9.5015344 c -0.45,0 -0.67,0.54 -0.35,0.85 l 2.7899996,2.78 c 0.2,0.19 0.51,0.19 0.71,0 l 2.79,-2.78 c 0.32,-0.31 0.09,-0.85 -0.35,-0.85 h -1.8 z M 2.9415344,0.1425 0.15153441,2.9325 c -0.32,0.31 -0.1,0.85 0.35,0.85 H 2.2915344 v 6.01 c 0,0.55 0.45,1 1,1 0.55,0 1,-0.45 1,-1 v -6.01 h 1.79 c 0.45,0 0.67,-0.54 0.35,-0.85 l -2.79,-2.79 c -0.19,-0.19 -0.51,-0.19 -0.7,0 z"
     id="path2"
     sodipodi:nodetypes="cssscsccccsccscscssscscss" />
  <circle
     style="fill:#5f6368;fill-opacity:1;stroke-width:4.77183;stroke-linecap:round"
     id="path3"
     cx="3.2882431"
     cy="12.569405"
     r="1.0007243" />
  <circle
     style="fill:#5f6368;fill-opacity:1;stroke-width:4.77183;stroke-linecap:round"
     id="circle3"
     cx="3.2882431"
     cy="15.293183"
     r="1.0007243" />
  <circle
     style="fill:#5f6368;fill-opacity:1;stroke-width:4.77183;stroke-linecap:round"
     id="path3-5"
     cx="12.298343"
     cy="1.9977071"
     r="1.0007243" />
  <circle
     style="fill:#5f6368;fill-opacity:1;stroke-width:4.77183;stroke-linecap:round"
     id="circle3-3"
     cx="12.298343"
     cy="4.7645965"
     r="1.0007243" />
</svg>
